<?xml version="1.0" encoding="UTF-8" standalone="no"?>
<svg
   width="2279.4102"
   height="277.18982"
   viewBox="0 0 175.74799 21.372"
   version="1.1"
   id="svg2"
   sodipodi:docname="honda.svg"
   inkscape:version="1.4.2 (f4327f4, 2025-05-13)"
   xmlns:inkscape="http://www.inkscape.org/namespaces/inkscape"
   xmlns:sodipodi="http://sodipodi.sourceforge.net/DTD/sodipodi-0.dtd"
   xmlns="http://www.w3.org/2000/svg"
   xmlns:svg="http://www.w3.org/2000/svg">
  <defs
     id="defs2" />
  <sodipodi:namedview
     id="namedview2"
     pagecolor="#ffffff"
     bordercolor="#000000"
     borderopacity="0.25"
     inkscape:showpageshadow="2"
     inkscape:pageopacity="0.0"
     inkscape:pagecheckerboard="0"
     inkscape:deskcolor="#d1d1d1"
     inkscape:zoom="0.3228"
     inkscape:cx="1138.4758"
     inkscape:cy="137.85626"
     inkscape:window-width="1920"
     inkscape:window-height="1009"
     inkscape:window-x="1912"
     inkscape:window-y="-8"
     inkscape:window-maximized="1"
     inkscape:current-layer="g2" />
  <g
     fill-rule="evenodd"
     clip-rule="evenodd"
     id="g2"
     transform="translate(-8.504,-85.692)">
    <path
       fill="#ffffff"
       d="M 0,0 H 192.756 V 192.756 H 0 Z"
       id="path1" />
    <path
       d="m 61.711,107.064 c -11.23,0 -16.256,-4.338 -16.256,-10.764 0,-6.227 5.025,-10.608 16.256,-10.608 11.186,0 16.212,4.359 16.212,10.608 0,6.427 -5.004,10.764 -16.212,10.764 z m 73.535,-0.789 -19.926,-0.016 0.008,-2.613 c 0,0 2.02,-0.238 2.842,-0.346 0.82,-0.109 1.143,-0.807 1.139,-1.58 -0.002,-0.773 0.01,-9.693 0.01,-10.598 -0.002,-0.905 -0.416,-1.428 -1.301,-1.555 -0.887,-0.127 -2.719,-0.311 -2.719,-0.311 v -2.795 h 19.947 c 9.051,0 12.965,4.403 12.965,9.652 0,5.826 -3.914,10.162 -12.965,10.162 z m -56.436,0.071 v -2.717 c 0,0 2.382,-0.264 2.755,-0.328 0.899,-0.158 1.223,-0.754 1.222,-1.693 V 91.229 c 0,-1.011 -0.445,-1.572 -1.41,-1.68 -0.311,-0.034 -2.568,-0.295 -2.568,-0.295 v -2.797 c 0,0 13.832,-0.011 14.043,-0.01 0.752,0.003 1.267,0.363 1.664,0.871 0.079,0.102 10.487,13.857 10.487,13.857 0,0 0.004,-8.895 0,-9.833 -0.002,-0.938 -0.33,-1.635 -1.283,-1.752 -0.297,-0.037 -2.693,-0.318 -2.693,-0.318 v -2.815 h 12.729 v 2.791 c 0,0 -2.232,0.241 -2.697,0.314 -1.094,0.17 -1.275,0.911 -1.281,1.699 -0.004,0.79 0,15.086 0,15.086 l -9.982,-0.002 c -0.662,0 -1.32,-0.301 -1.678,-0.76 -0.236,-0.303 -10.556,-13.957 -10.556,-13.957 0,0 -0.005,9.207 0,10.119 0.005,0.912 0.449,1.475 1.258,1.572 0.808,0.098 2.72,0.311 2.72,0.311 v 2.717 H 78.81 Z M 8.511,106.342 8.504,103.688 c 0,0 1.628,-0.191 2.635,-0.314 1.007,-0.125 1.35,-0.771 1.351,-1.908 V 91.372 c 0.002,-1.014 -0.251,-1.721 -1.321,-1.883 -0.373,-0.057 -2.656,-0.31 -2.656,-0.31 L 8.512,86.452 h 15.912 l -0.015,2.711 c 0,0 -2.373,0.268 -2.687,0.313 -0.813,0.113 -1.27,0.639 -1.276,1.778 v 3.153 h 12.265 v -3.083 c 0.001,-0.987 -0.292,-1.729 -1.215,-1.852 -0.923,-0.123 -2.77,-0.333 -2.77,-0.333 l 0.006,-2.688 h 15.912 l -0.013,2.713 c 0,0 -1.9,0.223 -2.74,0.327 -0.839,0.104 -1.228,0.751 -1.226,1.816 10e-4,0.187 -0.005,9.213 0,10.354 0.006,1.143 0.643,1.568 1.167,1.637 0.524,0.069 2.818,0.324 2.818,0.324 l -0.006,2.719 H 28.733 l 0.014,-2.727 c 0,0 2.423,-0.27 2.732,-0.33 1.086,-0.219 1.236,-0.957 1.232,-1.861 -0.004,-0.904 0,-3.039 0,-3.039 H 20.446 c 0,0 -0.009,1.846 0,3.186 0.009,1.34 0.639,1.719 1.248,1.805 0.77,0.1 2.728,0.316 2.728,0.316 l 0.002,2.65 H 8.511 Z M 139.07,96.379 c 0,-5.003 -2.023,-6.117 -6.871,-6.117 h -5.092 v 12.169 h 5.092 c 4.848,0.001 6.871,-1.003 6.871,-6.052 z M 68.783,96.367 c 0,-5.159 -2.579,-6.855 -7.094,-6.855 -4.515,0 -7.094,1.696 -7.094,6.855 0,5.227 2.58,6.891 7.094,6.891 4.514,0 7.094,-1.664 7.094,-6.891 z m 90.592,9.983 h -12.73 v -2.715 l 2.705,-0.359 c 0.949,-0.123 1.328,-0.879 1.436,-1.049 0.109,-0.17 6.209,-10.052 6.74,-10.937 0.531,-0.885 -0.029,-1.561 -0.725,-1.685 -0.486,-0.087 -3.523,-0.399 -3.523,-0.399 l -0.002,-2.75 h 15.533 c 0.973,0.027 1.572,1.12 1.572,1.12 l 8.924,13.651 c 0.721,1.102 1.271,1.908 2.156,2.039 0.883,0.129 2.779,0.35 2.779,0.35 l 0.012,2.73 h -17.199 l 0.016,-2.697 c 0,0 1.133,-0.15 2.168,-0.285 1.037,-0.135 1.908,-0.584 1.049,-1.846 -0.859,-1.26 -0.838,-1.248 -0.838,-1.248 l -12.191,0.027 c 0,0 -0.379,0.57 -0.971,1.486 -0.59,0.914 0.033,1.492 0.908,1.6 l 2.182,0.271 v 2.696 z m 0.102,-9.647 7.678,0.039 -3.883,-6.14 z"
       fill="#cc2229"
       id="path2" />
  </g>
</svg>
