<?xml version="1.0" encoding="UTF-8" standalone="no"?>
<svg
   width="2426.5005"
   height="428.43024"
   viewBox="0 0 187.08901 33.032999"
   version="1.1"
   id="svg2"
   sodipodi:docname="lexus-2.svg"
   inkscape:version="1.4.2 (f4327f4, 2025-05-13)"
   xmlns:inkscape="http://www.inkscape.org/namespaces/inkscape"
   xmlns:sodipodi="http://sodipodi.sourceforge.net/DTD/sodipodi-0.dtd"
   xmlns="http://www.w3.org/2000/svg"
   xmlns:svg="http://www.w3.org/2000/svg">
  <defs
     id="defs2" />
  <sodipodi:namedview
     id="namedview2"
     pagecolor="#ffffff"
     bordercolor="#000000"
     borderopacity="0.25"
     inkscape:showpageshadow="2"
     inkscape:pageopacity="0.0"
     inkscape:pagecheckerboard="0"
     inkscape:deskcolor="#d1d1d1"
     inkscape:zoom="0.3228"
     inkscape:cx="1212.8253"
     inkscape:cy="215.30359"
     inkscape:window-width="1920"
     inkscape:window-height="1009"
     inkscape:window-x="-8"
     inkscape:window-y="315"
     inkscape:window-maximized="1"
     inkscape:current-layer="g2" />
  <g
     fill-rule="evenodd"
     clip-rule="evenodd"
     id="g2"
     transform="translate(-2.8339974,-79.862)">
    <path
       fill="#ffffff"
       d="M 0,0 H 192.756 V 192.756 H 0 Z"
       id="path1" />
    <path
       d="m 182.135,95.469 h -13.719 c 0.17,-1.719 1.383,-3.438 3.574,-3.438 h 16.178 v -3.303 h -16.92 c -6.74,0 -9.506,5.124 -9.506,10.044 h 18.877 c 0.639,0 2.156,0.135 2.156,1.685 0,1.551 -1.314,1.686 -3.572,1.753 H 159.517 V 88.728 h -5.797 v 13.482 h -11.055 c -3.338,0 -3.707,-2.46 -3.707,-3.774 v -9.708 h -10.551 l -8.596,5.73 -7.752,-5.73 H 89.444 c -6.741,0 -10.786,4.685 -11.359,8.763 h 4.662 c -1.864,1.257 -3.184,2.96 -3.901,4.713 l -13.164,0.006 c -3.337,0 -3.708,-2.46 -3.708,-3.774 v -9.708 h -5.797 v 9.202 c 0,6.337 4.449,7.584 6.606,7.584 h 46.346 l 8.662,-5.798 7.854,5.798 h 9.135 l -12.168,-8.966 10.01,-6.708 v 8.865 c 0,5.729 5.596,6.809 7.146,6.809 h 42.301 c 2.09,0 7.854,-0.27 7.854,-4.854 0,-4.584 -4.249,-5.191 -7.788,-5.191 z m -73.949,6.741 H 86.377 c 0.168,-1.719 2.056,-3.438 4.247,-3.438 H 103.5 V 95.469 H 85.905 c 0.168,-1.719 2.056,-3.438 4.247,-3.438 h 14.696 V 90.11 l 10.18,7.55 z m -82.36,10.685 c 7.612,0 14.363,-2.657 18.548,-6.752 l -3.771,0.018 c -3.565,2.998 -8.777,4.885 -14.684,4.885 -11.019,0 -19.621,-6.566 -19.621,-14.667 0,-9.343 8.602,-14.667 19.621,-14.667 0.701,0.002 1.261,0.325 0.841,0.933 -2.289,2.756 -8.808,11.626 -9.997,13.548 -2.346,3.789 -2.29,8.455 3.457,8.782 h 24.166 c 1.235,0 1.548,-0.579 1.994,-1.183 a 12.339,12.339 0 0 0 2.437,-7.413 C 48.813,89.417 43.914,84.199 36.705,81.632 l -1.116,1.667 c 5.99,2.21 9.951,6.676 9.951,13.08 0,1.112 -0.163,2.195 -0.471,3.236 -0.268,0.904 -0.791,1.669 -1.782,1.669 h -19.29 c -2.471,0 -1.516,-2.549 -0.601,-3.784 1.327,-2.379 8.596,-12.286 10.346,-14.132 0.446,-0.677 1.696,-2.079 -0.027,-2.616 -2.46,-0.584 -5.118,-0.89 -7.89,-0.89 -12.697,0 -22.984,6.52 -22.991,16.517 -0.006,10.09 10.294,16.516 22.992,16.516 z"
       id="path2" />
  </g>
</svg>
