<?xml version="1.0" encoding="UTF-8" standalone="no"?>
<svg
   width="2426.4614"
   height="499.15436"
   viewBox="0 0 187.086 38.485999"
   version="1.1"
   id="svg3"
   sodipodi:docname="mercedes-benz.svg"
   inkscape:version="1.4.2 (f4327f4, 2025-05-13)"
   xmlns:inkscape="http://www.inkscape.org/namespaces/inkscape"
   xmlns:sodipodi="http://sodipodi.sourceforge.net/DTD/sodipodi-0.dtd"
   xmlns="http://www.w3.org/2000/svg"
   xmlns:svg="http://www.w3.org/2000/svg">
  <defs
     id="defs3" />
  <sodipodi:namedview
     id="namedview3"
     pagecolor="#ffffff"
     bordercolor="#000000"
     borderopacity="0.25"
     inkscape:showpageshadow="2"
     inkscape:pageopacity="0.0"
     inkscape:pagecheckerboard="0"
     inkscape:deskcolor="#d1d1d1"
     inkscape:zoom="0.3228"
     inkscape:cx="1212.8253"
     inkscape:cy="249.38042"
     inkscape:window-width="1920"
     inkscape:window-height="1009"
     inkscape:window-x="1912"
     inkscape:window-y="-8"
     inkscape:window-maximized="1"
     inkscape:current-layer="g3" />
  <g
     fill-rule="evenodd"
     clip-rule="evenodd"
     id="g3"
     transform="translate(-2.835,-77.135)">
    <path
       fill="#ffffff"
       d="M 0,0 H 192.756 V 192.756 H 0 Z"
       id="path1" />
    <path
       d="m 22.479,96.271 0.861,-0.493 10.776,7.388 z M 21.86,95.877 21.059,95.416 21.952,81.315 Z m -0.965,-0.048 -3.571,2.955 4.279,-2.524 z"
       id="path2" />
    <path
       d="m 22.078,77.135 c -10.627,0 -19.243,8.615 -19.243,19.243 0,10.628 8.616,19.243 19.243,19.243 10.628,0 19.244,-8.615 19.244,-19.243 0,-10.628 -8.616,-19.243 -19.244,-19.243 z m 0.002,37.46 c -4.397,0 -8.512,-1.466 -11.578,-4.157 -2.983,-2.62 -5.3,-6.783 -5.872,-11.208 1.356,8.415 8.653,14.843 17.45,14.843 9.762,0 17.676,-7.914 17.676,-17.676 0,-4.05 -1.513,-8.016 -3.805,-10.996 2.322,1.791 4.327,6.892 4.327,10.996 0,10.05 -8.148,18.198 -18.198,18.198 z m -1.671,-19.588 1.556,-15.955 0.113,-0.001 h 0.04 l 0.153,16.79 2.678,-1.601 -2.694,-15.187 c 9.488,0.095 17.152,7.814 17.152,17.325 0,3.056 -0.792,5.926 -2.18,8.418 L 25.2,94.733 l -1.139,0.646 13.084,9.561 -0.1,0.172 -14.714,-8.465 v 2.986 l 14.613,5.648 c -3.029,5.046 -8.553,8.424 -14.867,8.424 -6.307,0 -11.827,-3.371 -14.857,-8.409 l 14.604,-5.694 v -2.985 l -14.731,8.465 -0.097,-0.168 13.038,-9.535 -1.139,-0.646 -11.994,10.01 a 17.245,17.245 0 0 1 -2.15,-8.365 c 0,-9.436 7.543,-17.11 16.928,-17.323 l -2.347,15.306 z m 1.669,-16.838 c -10.051,0 -18.198,8.148 -18.198,18.198 0,4.082 1.481,7.943 3.74,11.278 0.766,1.433 1.595,2.32 2.701,3.491 -4.334,-3.462 -7.138,-8.791 -7.138,-14.77 0,-10.435 8.459,-18.895 18.895,-18.895 10.436,0 19.056,8.828 18.746,18.895 C 40.562,86.544 31.963,78.169 22.078,78.169 Z m 84.529,19.483 c 0,-3.375 -1.492,-6.111 -4.768,-6.111 -3.041,0 -4.77,2.736 -4.77,6.111 0,3.375 1.445,6.111 4.77,6.111 3.229,0 4.178,-1.6 4.674,-4.159 L 105.4,99.6 c -0.094,0.949 -0.713,3.087 -3.086,3.134 -2.707,0.055 -2.896,-3.419 -2.85,-5.081 l 0.047,-0.95 c 0,-1.044 -0.094,-4.131 2.422,-4.131 1.994,0 2.279,2.565 2.279,4.131 h -4.701 l -0.047,0.95 h 7.143 z m -56.174,-10.316 -0.048,0.76 h 0.712 c 0.522,0 1.188,0.047 1.188,0.712 l -0.237,12.87 c 0,0.475 -0.238,0.997 -1.188,0.997 h -0.712 l -0.048,0.76 h 4.796 v -0.76 h -0.807 c -0.618,0 -1.045,-0.19 -1.045,-0.997 l 0.237,-12.347 5.129,13.296 h 0.522 l 5.176,-13.439 0.238,12.49 c 0,0.427 -0.428,0.997 -1.093,0.997 h -0.997 v 0.76 h 6.031 v -0.76 h -0.712 c -0.522,0 -1.14,-0.285 -1.14,-0.95 L 66.197,88.998 c 0,-0.428 0.475,-0.902 0.95,-0.902 h 0.902 v -0.76 H 63.727 L 59.263,99.018 54.799,87.336 Z m 33.406,16.109 v -0.617 h -0.475 c -0.427,0 -1.187,-0.143 -1.187,-0.998 v -6.221 c 0,-1.947 0.997,-2.659 1.994,-2.659 0.38,0 0.618,0.19 0.522,0.902 -0.095,0.712 0.522,1.187 1.045,1.14 0.523,-0.047 1.188,-0.143 1.092,-1.472 -0.096,-1.329 -0.854,-1.947 -2.184,-1.947 -1.045,0 -1.9,0.665 -2.137,0.998 -0.276,0.387 -0.618,0.237 -0.665,-0.19 -0.047,-0.427 -0.237,-0.854 -0.712,-0.712 a 11.409,11.409 0 0 1 -2.802,0.522 v 0.475 c 1.994,-0.095 1.805,0.902 1.805,1.377 v 7.788 c 0,0.855 -0.76,0.998 -1.188,0.998 h -0.665 v 0.617 h 5.557 z M 94.418,92.296 c -0.7,-0.511 -1.58,-0.804 -2.651,-0.804 -3.039,0 -4.769,2.736 -4.769,6.112 0,3.375 1.444,6.095 4.769,6.111 2.944,0.015 3.657,-1.647 4.152,-4.207 l -1.113,-0.005 c -0.095,0.949 -0.427,3.134 -2.564,3.182 -2.706,0.061 -2.896,-3.42 -2.849,-5.081 0,-1.045 0.143,-5.225 2.422,-5.225 1.946,0 3.134,1.378 3.134,2.945 h 0.617 v -3.989 h -0.522 z m 68.701,10.437 c -2.707,0.055 -2.896,-3.419 -2.85,-5.081 h 7.143 c 0,-3.375 -1.49,-6.111 -4.768,-6.111 -3.039,0 -4.768,2.736 -4.768,6.111 0,3.375 1.443,6.111 4.768,6.111 3.229,0 4.18,-1.6 4.674,-4.159 l -1.111,-0.005 c -0.096,0.95 -0.713,3.088 -3.088,3.134 z M 162.74,92.571 c 1.994,0 2.279,2.565 2.279,4.131 h -4.701 c 0,-1.044 -0.095,-4.131 2.422,-4.131 z m -38.662,10.162 c -2.707,0.055 -2.896,-3.419 -2.85,-5.081 h 7.143 c 0,-3.375 -1.492,-6.111 -4.768,-6.111 -3.039,0 -4.77,2.736 -4.77,6.111 0,3.375 1.445,6.111 4.77,6.111 3.229,0 4.178,-1.6 4.674,-4.159 l -1.113,-0.005 c -0.094,0.95 -0.711,3.088 -3.086,3.134 z m -0.381,-10.162 c 1.996,0 2.279,2.565 2.279,4.131 h -4.701 c 0,-1.044 -0.093,-4.131 2.422,-4.131 z m -50.02,10.162 c -2.706,0.055 -2.896,-3.419 -2.849,-5.081 h 7.143 c 0,-3.375 -1.492,-6.111 -4.768,-6.111 -3.04,0 -4.769,2.736 -4.769,6.111 0,3.375 1.444,6.111 4.769,6.111 3.229,0 4.179,-1.6 4.674,-4.159 L 76.764,99.6 c -0.095,0.949 -0.712,3.087 -3.087,3.133 z m -0.38,-10.162 c 1.995,0 2.279,2.565 2.279,4.131 h -4.701 c 0,-1.044 -0.094,-4.131 2.422,-4.131 z m 43.652,8.394 v -13.25 c 0,-0.546 -0.283,-0.998 -0.76,-0.855 a 11.371,11.371 0 0 1 -2.801,0.522 v 0.475 c 1.377,-0.095 1.52,0.333 1.52,0.808 v 4.084 c -0.617,-0.57 -1.33,-1.14 -2.611,-1.14 -1.615,0 -4.607,1.282 -4.607,5.793 0,5.937 3.467,6.316 4.512,6.316 1.045,0 2.422,-0.854 2.707,-1.306 0.023,-0.095 0.166,-0.214 0.213,0 0.049,0.428 0.357,1.068 0.832,0.926 a 11.418,11.418 0 0 1 2.801,-0.522 v -0.475 c -1.995,0.096 -1.806,-0.902 -1.806,-1.376 z m -2.041,-1.425 c -0.047,2.611 -1.424,3.419 -2.564,3.419 -2.564,-0.047 -2.375,-3.941 -2.375,-5.604 0,-1.663 0.096,-4.939 2.422,-4.654 2.328,0.285 2.518,2.754 2.518,4.226 v 2.613 z m 29.918,-2.893 v -1.092 h -6.267 v 1.092 z m -14.902,2.761 v 4.036 h 0.521 l 0.475,-1.045 c 0.475,0.428 1.473,1.14 2.754,1.14 1.283,0 3.088,-0.712 3.801,-2.041 0.711,-1.33 0.379,-3.515 -1.236,-4.18 -1.414,-0.582 -2.654,-1.279 -3.609,-1.757 a 1.53,1.53 0 0 1 -0.854,-1.615 c 0.143,-0.76 0.807,-1.567 2.326,-1.615 1.52,-0.047 2.279,1.235 2.471,2.707 h 0.521 V 91.24 h -0.475 l -0.523,0.902 c -0.996,-0.665 -1.424,-0.76 -2.326,-0.76 -0.902,0 -2.422,0.475 -3.277,1.805 -0.854,1.33 -0.617,3.418 1.426,4.274 2.041,0.854 2.992,1.377 3.561,1.662 0.57,0.285 0.902,1.425 0.523,2.09 -0.381,0.664 -1.092,1.425 -2.232,1.425 -1.14,0 -2.943,-0.808 -3.371,-3.229 h -0.476 z m 23.828,-4.664 c 1.141,-0.285 2.281,-2.327 2.281,-3.704 0,-1.377 -0.523,-3.704 -3.848,-3.704 h -7.123 v 0.617 c 0.713,0 1.947,0.143 1.947,1.33 v 11.73 c 0,0.665 -0.047,1.757 -1.947,1.757 v 0.665 h 5.842 c 1.756,0 5.793,-0.143 5.889,-4.796 0,-1.568 -0.76,-3.42 -3.041,-3.895 z m -4.701,-6.648 h 2.375 c 1.758,0 2.469,1.281 2.469,2.944 0,2.042 -0.617,3.609 -2.469,3.609 h -2.375 z m 2.422,14.579 h -2.422 v -7.266 h 2.707 c 1.568,0 2.945,1.092 2.945,3.466 0,2.375 -1.426,3.8 -3.23,3.8 z m 24.715,-7.873 v 7.028 c 0,0.855 -0.76,0.998 -1.188,0.998 h -0.285 v 0.617 h 5.176 v -0.617 h -0.475 c -0.428,0 -1.188,-0.143 -1.188,-0.998 v -6.98 c -0.047,-3.182 -2.896,-3.277 -3.893,-3.277 -1.045,0 -2.186,0.665 -2.422,0.998 -0.277,0.387 -0.619,0.237 -0.666,-0.19 -0.047,-0.427 -0.236,-0.854 -0.713,-0.712 a 11.402,11.402 0 0 1 -2.801,0.522 v 0.475 c 1.994,-0.095 1.805,0.902 1.805,1.377 v 7.788 c 0,0.855 -0.76,0.998 -1.188,0.998 h -0.664 v 0.617 h 5.555 v -0.617 h -0.475 c -0.428,0 -1.188,-0.143 -1.188,-0.998 V 95.61 c 0,-1.044 0.381,-2.707 2.328,-2.85 1.949,-0.142 2.282,1.14 2.282,2.042 z m 4.804,0.238 0.855,-3.229 h 8.074 l -6.934,10.97 h 3.703 c 0.855,0 1.52,-0.333 2.422,-2.518 h 0.381 l -0.76,3.182 h -8.264 l 6.887,-10.969 h -3.088 c -0.76,0 -1.613,0 -2.801,2.564 z"
       id="path3" />
  </g>
</svg>
