<?xml version="1.0" encoding="UTF-8" standalone="no"?>
<svg
   width="2463.2178"
   height="405.21436"
   viewBox="0 0 189.92 31.242999"
   version="1.1"
   id="svg2"
   sodipodi:docname="toyota.svg"
   inkscape:version="1.4.2 (f4327f4, 2025-05-13)"
   xmlns:inkscape="http://www.inkscape.org/namespaces/inkscape"
   xmlns:sodipodi="http://sodipodi.sourceforge.net/DTD/sodipodi-0.dtd"
   xmlns="http://www.w3.org/2000/svg"
   xmlns:svg="http://www.w3.org/2000/svg">
  <defs
     id="defs2" />
  <sodipodi:namedview
     id="namedview2"
     pagecolor="#ffffff"
     bordercolor="#000000"
     borderopacity="0.25"
     inkscape:showpageshadow="2"
     inkscape:pageopacity="0.0"
     inkscape:pagecheckerboard="0"
     inkscape:deskcolor="#d1d1d1"
     inkscape:zoom="0.3228"
     inkscape:cx="1228.3147"
     inkscape:cy="202.91202"
     inkscape:window-width="1920"
     inkscape:window-height="1009"
     inkscape:window-x="-8"
     inkscape:window-y="315"
     inkscape:window-maximized="1"
     inkscape:current-layer="g2" />
  <g
     fill-rule="evenodd"
     clip-rule="evenodd"
     id="g2"
     transform="translate(-1.56,-80.757)">
    <path
       fill="#ffffff"
       d="M 0,0 H 192.756 V 192.756 H 0 Z"
       id="path1" />
    <path
       d="m 24.037,110.41 c -2.514,-1.575 -4.367,-7.01 -4.367,-13.469 0,-0.237 10e-4,-0.471 0.007,-0.704 l 0.002,0.003 C 12.685,95.141 7.632,92.13 7.502,88.568 l -0.02,0.042 c -1.711,2.127 -2.688,4.586 -2.688,7.206 0,7.71 8.463,14.027 19.198,14.586 z M 1.56,96.378 c 0,-8.626 10.736,-15.621 23.979,-15.621 13.244,0 23.98,6.995 23.98,15.621 C 49.519,105.005 38.783,112 25.539,112 12.296,112 1.56,105.005 1.56,96.378 Z M 25.54,83.011 c 2.557,0 4.732,3.879 5.538,9.291 l 0.002,-0.009 c 4.975,-0.774 8.457,-2.56 8.457,-4.639 0,-2.789 -6.267,-5.048 -13.997,-5.048 -7.729,0 -13.996,2.259 -13.996,5.048 0,2.079 3.482,3.864 8.456,4.639 l 0.003,0.009 c 0.806,-5.412 2.981,-9.291 5.537,-9.291 z m 1.548,27.39 c 10.735,-0.559 19.199,-6.876 19.199,-14.586 0,-2.62 -0.978,-5.079 -2.688,-7.206 l -0.021,-0.042 c -0.129,3.562 -5.182,6.573 -12.177,7.672 l 0.003,-0.003 c 0.005,0.233 0.007,0.467 0.007,0.704 0,6.459 -1.854,11.894 -4.367,13.469 z M 25.54,92.703 a 37.94,37.94 0 0 0 3.325,-0.142 l -10e-4,10e-4 c -0.53,-3.468 -1.818,-5.917 -3.323,-5.917 -1.505,0 -2.792,2.449 -3.323,5.917 l -0.001,-10e-4 a 38.27,38.27 0 0 0 3.323,0.142 z m 0,12.846 c 1.925,0 3.496,-4.006 3.579,-9.029 l 0.01,0.003 a 39.115,39.115 0 0 1 -7.177,0 l 0.01,-0.003 c 0.083,5.023 1.653,9.029 3.578,9.029 z m 98.382,-9.171 c 0,-6.593 5.346,-11.939 11.939,-11.939 6.596,0 11.941,5.346 11.941,11.939 0,6.595 -5.346,11.939 -11.941,11.939 -6.593,0 -11.939,-5.344 -11.939,-11.939 z m 11.939,7.561 c 3.682,0 6.668,-3.386 6.668,-7.562 0,-4.175 -2.986,-7.561 -6.668,-7.561 -3.682,0 -6.666,3.386 -6.666,7.561 0,4.177 2.985,7.562 6.666,7.562 z M 161.35,89.413 v 18.362 h -5.032 V 89.413 h 0.018 -7.035 v -4.151 h 19.066 v 4.151 z m 13.103,13.297 -0.004,0.005 -1.93,5.061 h -5.877 l 9.289,-22.514 h 6.262 l 9.287,22.514 h -5.875 l -1.93,-5.061 -0.006,-0.005 z m 4.609,-3.8 h 3.166 l -0.002,0.001 -3.143,-8.24 h -0.043 l -3.143,8.24 -0.002,-0.001 z M 68.617,89.413 v 18.362 H 63.586 V 89.413 h 0.018 -7.036 v -4.151 h 19.067 v 4.151 z m 8.305,6.965 c 0,-6.593 5.346,-11.939 11.941,-11.939 6.594,0 11.94,5.346 11.94,11.939 0,6.595 -5.346,11.939 -11.94,11.939 -6.595,0 -11.941,-5.344 -11.941,-11.939 z m 11.941,7.561 c 3.681,0 6.667,-3.386 6.667,-7.562 0,-4.175 -2.986,-7.561 -6.667,-7.561 -3.682,0 -6.667,3.386 -6.667,7.561 0,4.177 2.985,7.562 6.667,7.562 z m 23.498,3.836 h 2.551 v -8.548 l 8.777,-13.965 h -5.875 l -5.453,9.463 -5.451,-9.463 h -5.875 l 8.776,13.965 v 8.548 z"
       fill="#cc2229"
       id="path2" />
  </g>
</svg>
